<?xml version="1.0" encoding="UTF-8" standalone="no"?>
<svg
   xmlns:dc="http://purl.org/dc/elements/1.1/"
   xmlns:cc="http://creativecommons.org/ns#"
   xmlns:rdf="http://www.w3.org/1999/02/22-rdf-syntax-ns#"
   xmlns:svg="http://www.w3.org/2000/svg"
   xmlns="http://www.w3.org/2000/svg"
   xmlns:sodipodi="http://sodipodi.sourceforge.net/DTD/sodipodi-0.dtd"
   xmlns:inkscape="http://www.inkscape.org/namespaces/inkscape"
   sodipodi:docname="ハンドメニュー.svg"
   inkscape:version="1.0 (4035a4fb49, 2020-05-01)"
   id="svg8"
   version="1.1"
   viewBox="0 0 210 297"
   height="297mm"
   width="210mm">
  <defs
     id="defs2">
    <rect
       id="rect944"
       height="46.869048"
       width="256.64583"
       y="110.74702"
       x="-27.592262" />
  </defs>
  <sodipodi:namedview
     inkscape:window-maximized="0"
     inkscape:window-y="0"
     inkscape:window-x="1972"
     inkscape:window-height="1040"
     inkscape:window-width="1638"
     showgrid="false"
     inkscape:document-rotation="0"
     inkscape:current-layer="layer1"
     inkscape:document-units="mm"
     inkscape:cy="520.42717"
     inkscape:cx="598.11158"
     inkscape:zoom="0.7"
     inkscape:pageshadow="2"
     inkscape:pageopacity="0"
     borderopacity="1.0"
     bordercolor="#666666"
     pagecolor="#000000"
     id="base" />
  <metadata
     id="metadata5">
    <rdf:RDF>
      <cc:Work
         rdf:about="">
        <dc:format>image/svg+xml</dc:format>
        <dc:type
           rdf:resource="http://purl.org/dc/dcmitype/StillImage" />
        <dc:title></dc:title>
      </cc:Work>
    </rdf:RDF>
  </metadata>
  <g
     id="layer1"
     inkscape:groupmode="layer"
     inkscape:label="レイヤー 1">
    <g
       style="opacity:1"
       id="g1072">
      <path
         id="path1074"
         d="m 19.92129,34.057281 h 185.43125 c 0.54461,0 0.98305,0.438441 0.98305,0.983051 V 260.15907 c 0,0.54461 -0.43844,0.98305 -0.98305,0.98305 H 19.92129 c -0.54461,0 -0.98305,-0.43844 -0.98305,-0.98305 V 35.040332 c 0,-0.54461 0.43844,-0.983051 0.98305,-0.983051 z"
         style="color:#000000;font-style:normal;font-variant:normal;font-weight:normal;font-stretch:normal;font-size:medium;line-height:normal;font-family:sans-serif;font-variant-ligatures:normal;font-variant-position:normal;font-variant-caps:normal;font-variant-numeric:normal;font-variant-alternates:normal;font-variant-east-asian:normal;font-feature-settings:normal;font-variation-settings:normal;text-indent:0;text-align:start;text-decoration:none;text-decoration-line:none;text-decoration-style:solid;text-decoration-color:#000000;letter-spacing:normal;word-spacing:normal;text-transform:none;writing-mode:lr-tb;direction:ltr;text-orientation:mixed;dominant-baseline:auto;baseline-shift:baseline;text-anchor:start;white-space:normal;shape-padding:0;shape-margin:0;inline-size:0;clip-rule:nonzero;display:inline;overflow:visible;visibility:visible;isolation:auto;mix-blend-mode:normal;color-interpolation:sRGB;color-interpolation-filters:linearRGB;solid-color:#000000;solid-opacity:1;vector-effect:none;fill:#111189;fill-opacity:1;fill-rule:nonzero;stroke:none;stroke-width:1.04505;stroke-linecap:butt;stroke-linejoin:miter;stroke-miterlimit:4;stroke-dasharray:none;stroke-dashoffset:0;stroke-opacity:1.0;color-rendering:auto;image-rendering:auto;shape-rendering:auto;text-rendering:auto;enable-background:accumulate;stop-color:#000000;stop-opacity:1;" />
      <path
         id="path1076"
         d="M 19.921875 33.535156 C 19.096824 33.535156 18.416016 34.215965 18.416016 35.041016 L 18.416016 260.1582 C 18.416016 260.98325 19.096825 261.66406 19.921875 261.66406 L 205.35352 261.66406 C 206.17857 261.66406 206.85742 260.98325 206.85742 260.1582 L 206.85742 35.041016 C 206.85742 34.215965 206.17857 33.535156 205.35352 33.535156 L 19.921875 33.535156 z M 19.921875 34.580078 L 205.35352 34.580078 C 205.61768 34.580078 205.8125 34.776846 205.8125 35.041016 L 205.8125 260.1582 C 205.8125 260.42237 205.61769 260.61914 205.35352 260.61914 L 19.921875 260.61914 C 19.657705 260.61914 19.460938 260.42237 19.460938 260.1582 L 19.460938 35.041016 C 19.460938 34.776846 19.657706 34.580078 19.921875 34.580078 z "
         style="color:#000000;font-style:normal;font-variant:normal;font-weight:normal;font-stretch:normal;font-size:medium;line-height:normal;font-family:sans-serif;font-variant-ligatures:normal;font-variant-position:normal;font-variant-caps:normal;font-variant-numeric:normal;font-variant-alternates:normal;font-variant-east-asian:normal;font-feature-settings:normal;font-variation-settings:normal;text-indent:0;text-align:start;text-decoration:none;text-decoration-line:none;text-decoration-style:solid;text-decoration-color:#000000;letter-spacing:normal;word-spacing:normal;text-transform:none;writing-mode:lr-tb;direction:ltr;text-orientation:mixed;dominant-baseline:auto;baseline-shift:baseline;text-anchor:start;white-space:normal;shape-padding:0;shape-margin:0;inline-size:0;clip-rule:nonzero;display:inline;overflow:visible;visibility:visible;isolation:auto;mix-blend-mode:normal;color-interpolation:sRGB;color-interpolation-filters:linearRGB;solid-color:#000000;solid-opacity:1;vector-effect:none;fill:#ffffff;fill-opacity:0.981413;fill-rule:nonzero;stroke:none;stroke-width:1.04505;stroke-linecap:butt;stroke-linejoin:miter;stroke-miterlimit:4;stroke-dasharray:none;stroke-dashoffset:0;stroke-opacity:1.0;color-rendering:auto;image-rendering:auto;shape-rendering:auto;text-rendering:auto;enable-background:accumulate;stop-color:#000000;stop-opacity:1;" />
    </g>
    <g
       style="opacity:1"
       id="g1078">
      <path
         id="path1080"
         d="M 19.062384,34.051353 H 206.21145 c 0.0721,0 0.13007,0.05801 0.13007,0.130072 v 29.78643 c 0,0.07206 -0.058,0.130072 -0.13007,0.130072 H 19.062384 c -0.07206,0 -0.130072,-0.05801 -0.130072,-0.130072 v -29.78643 c 0,-0.07206 0.05801,-0.130072 0.130072,-0.130072 z"
         style="color:#000000;font-style:normal;font-variant:normal;font-weight:normal;font-stretch:normal;font-size:medium;line-height:normal;font-family:sans-serif;font-variant-ligatures:normal;font-variant-position:normal;font-variant-caps:normal;font-variant-numeric:normal;font-variant-alternates:normal;font-variant-east-asian:normal;font-feature-settings:normal;font-variation-settings:normal;text-indent:0;text-align:start;text-decoration:none;text-decoration-line:none;text-decoration-style:solid;text-decoration-color:#000000;letter-spacing:normal;word-spacing:normal;text-transform:none;writing-mode:lr-tb;direction:ltr;text-orientation:mixed;dominant-baseline:auto;baseline-shift:baseline;text-anchor:start;white-space:normal;shape-padding:0;shape-margin:0;inline-size:0;clip-rule:nonzero;display:inline;overflow:visible;visibility:visible;isolation:auto;mix-blend-mode:normal;color-interpolation:sRGB;color-interpolation-filters:linearRGB;solid-color:#000000;solid-opacity:1;vector-effect:none;fill:#1111f4;fill-opacity:1;fill-rule:nonzero;stroke:none;stroke-width:1.0314;stroke-linecap:butt;stroke-linejoin:miter;stroke-miterlimit:4;stroke-dasharray:none;stroke-dashoffset:0;stroke-opacity:1.0;color-rendering:auto;image-rendering:auto;shape-rendering:auto;text-rendering:auto;enable-background:accumulate;stop-color:#000000;stop-opacity:1;" />
      <path
         id="path1082"
         d="M 19.0625 33.535156 C 18.713669 33.535156 18.416016 33.832814 18.416016 34.181641 L 18.416016 63.96875 C 18.416016 64.317581 18.713673 64.613281 19.0625 64.613281 L 206.21094 64.613281 C 206.55975 64.613281 206.85742 64.317529 206.85742 63.96875 L 206.85742 34.181641 C 206.85742 33.83301 206.55965 33.535156 206.21094 33.535156 L 19.0625 33.535156 z M 19.447266 34.566406 L 205.82617 34.566406 L 205.82617 63.582031 L 19.447266 63.582031 L 19.447266 34.566406 z "
         style="color:#000000;font-style:normal;font-variant:normal;font-weight:normal;font-stretch:normal;font-size:medium;line-height:normal;font-family:sans-serif;font-variant-ligatures:normal;font-variant-position:normal;font-variant-caps:normal;font-variant-numeric:normal;font-variant-alternates:normal;font-variant-east-asian:normal;font-feature-settings:normal;font-variation-settings:normal;text-indent:0;text-align:start;text-decoration:none;text-decoration-line:none;text-decoration-style:solid;text-decoration-color:#000000;letter-spacing:normal;word-spacing:normal;text-transform:none;writing-mode:lr-tb;direction:ltr;text-orientation:mixed;dominant-baseline:auto;baseline-shift:baseline;text-anchor:start;white-space:normal;shape-padding:0;shape-margin:0;inline-size:0;clip-rule:nonzero;display:inline;overflow:visible;visibility:visible;isolation:auto;mix-blend-mode:normal;color-interpolation:sRGB;color-interpolation-filters:linearRGB;solid-color:#000000;solid-opacity:1;vector-effect:none;fill:#ffffff;fill-opacity:0.981413;fill-rule:nonzero;stroke:none;stroke-width:1.0314;stroke-linecap:butt;stroke-linejoin:miter;stroke-miterlimit:4;stroke-dasharray:none;stroke-dashoffset:0;stroke-opacity:1.0;color-rendering:auto;image-rendering:auto;shape-rendering:auto;text-rendering:auto;enable-background:accumulate;stop-color:#000000;stop-opacity:1;" />
    </g>
    <g
       transform="translate(1.1339264)"
       id="g1011">
      <g
         style="opacity:1"
         id="g1084">
        <path
           id="path1086"
           d="M 29.051611,71.762741 H 193.95437 c 2.46495,0 4.44937,1.984419 4.44937,4.44937 v 19.280602 c 0,2.464951 -1.98442,4.44937 -4.44937,4.44937 H 29.051611 c -2.464951,0 -4.449369,-1.984419 -4.449369,-4.44937 V 76.212111 c 0,-2.464951 1.984418,-4.44937 4.449369,-4.44937 z"
           style="color:#000000;font-style:normal;font-variant:normal;font-weight:normal;font-stretch:normal;font-size:medium;line-height:normal;font-family:sans-serif;font-variant-ligatures:normal;font-variant-position:normal;font-variant-caps:normal;font-variant-numeric:normal;font-variant-alternates:normal;font-variant-east-asian:normal;font-feature-settings:normal;font-variation-settings:normal;text-indent:0;text-align:start;text-decoration:none;text-decoration-line:none;text-decoration-style:solid;text-decoration-color:#000000;letter-spacing:normal;word-spacing:normal;text-transform:none;writing-mode:lr-tb;direction:ltr;text-orientation:mixed;dominant-baseline:auto;baseline-shift:baseline;text-anchor:start;white-space:normal;shape-padding:0;shape-margin:0;inline-size:0;clip-rule:nonzero;display:inline;overflow:visible;visibility:visible;isolation:auto;mix-blend-mode:normal;color-interpolation:sRGB;color-interpolation-filters:linearRGB;solid-color:#000000;solid-opacity:1;vector-effect:none;fill:#c91189;fill-opacity:0;fill-rule:nonzero;stroke:none;stroke-width:1.22315;stroke-linecap:butt;stroke-linejoin:miter;stroke-miterlimit:4;stroke-dasharray:none;stroke-dashoffset:0;stroke-opacity:1.0;color-rendering:auto;image-rendering:auto;shape-rendering:auto;text-rendering:auto;enable-background:accumulate;stop-color:#000000;stop-opacity:1;" />
        <path
           id="path1088"
           d="M 29.050781 71.150391 C 26.257596 71.150391 23.990234 73.419706 23.990234 76.212891 L 23.990234 95.492188 C 23.990234 98.285372 26.257596 100.55273 29.050781 100.55273 L 193.95508 100.55273 C 196.74826 100.55273 199.01562 98.285373 199.01562 95.492188 L 199.01562 76.212891 C 199.01562 73.419705 196.74826 71.150391 193.95508 71.150391 L 29.050781 71.150391 z M 29.050781 72.375 L 193.95508 72.375 C 196.09179 72.375 197.79297 74.076174 197.79297 76.212891 L 197.79297 95.492188 C 197.79297 97.628904 196.09179 99.330078 193.95508 99.330078 L 29.050781 99.330078 C 26.914064 99.330078 25.212891 97.628905 25.212891 95.492188 L 25.212891 76.212891 C 25.212891 74.076173 26.914064 72.375 29.050781 72.375 z "
           style="color:#000000;font-style:normal;font-variant:normal;font-weight:normal;font-stretch:normal;font-size:medium;line-height:normal;font-family:sans-serif;font-variant-ligatures:normal;font-variant-position:normal;font-variant-caps:normal;font-variant-numeric:normal;font-variant-alternates:normal;font-variant-east-asian:normal;font-feature-settings:normal;font-variation-settings:normal;text-indent:0;text-align:start;text-decoration:none;text-decoration-line:none;text-decoration-style:solid;text-decoration-color:#000000;letter-spacing:normal;word-spacing:normal;text-transform:none;writing-mode:lr-tb;direction:ltr;text-orientation:mixed;dominant-baseline:auto;baseline-shift:baseline;text-anchor:start;white-space:normal;shape-padding:0;shape-margin:0;inline-size:0;clip-rule:nonzero;display:inline;overflow:visible;visibility:visible;isolation:auto;mix-blend-mode:normal;color-interpolation:sRGB;color-interpolation-filters:linearRGB;solid-color:#000000;solid-opacity:1;vector-effect:none;fill:#ffffff;fill-opacity:1;fill-rule:nonzero;stroke:none;stroke-width:1.22315;stroke-linecap:butt;stroke-linejoin:miter;stroke-miterlimit:4;stroke-dasharray:none;stroke-dashoffset:0;stroke-opacity:1.0;color-rendering:auto;image-rendering:auto;shape-rendering:auto;text-rendering:auto;enable-background:accumulate;stop-color:#000000;stop-opacity:1;" />
      </g>
      <g
         style="font-style:normal;font-weight:normal;font-size:7.05556px;line-height:1.25;font-family:sans-serif;fill:#ffffff;fill-opacity:1;stroke:none;stroke-width:0.264583"
         id="text940"
         aria-label="開閉器番号">
        <path
           id="path1028"
           style="font-size:7.05556px;fill:#ffffff;stroke-width:0.264583"
           d="m 31.780708,82.765352 h 2.590714 v 5.622399 q 0,0.440973 -0.440973,0.440973 H 33.26899 l -0.08268,-0.523655 h 0.523655 q 0.110243,0 0.110243,-0.110243 v -3.141929 h -1.019749 -1.019749 z m -2.287545,4.271921 v -0.440972 h 1.102432 v -0.661459 h -0.909506 v -0.440973 h 3.472658 v 0.440973 h -0.71658 v 0.661459 h 0.937067 v 0.440972 H 32.442167 V 88.69092 H 31.890951 V 87.037273 H 31.14681 q 0.05512,1.212674 -1.240235,1.791451 l -0.275608,-0.523655 q 0.964628,-0.35829 0.964628,-1.267796 z m 0.992189,-3.830949 h -1.37804 v 0.496094 h 1.37804 z m 0.551215,1.846573 h -1.929255 v 3.858509 h -0.551215 v -6.146054 h 2.48047 z m 0.854384,1.543404 V 85.934842 H 31.14681 v 0.661459 z m 1.929255,-2.893883 v -0.496094 h -1.488282 v 0.496094 z m -1.488282,0.909506 h 1.488282 v -0.468533 h -1.488282 z m -3.224612,0 h 1.37804 v -0.468533 h -1.37804 z" />
        <path
           id="path1030"
           style="font-size:7.05556px;fill:#ffffff;stroke-width:0.264583"
           d="m 35.611657,88.911406 v -6.090933 h 2.590713 v 2.259985 h -2.039497 v 3.830948 z m 2.949004,-2.452909 h -1.819012 v -0.523655 h 1.819012 v -0.716581 h 0.523654 q 0.220487,0.02756 0.02756,0.165365 v 0.551216 h 1.295357 v 0.523655 h -1.295357 v 1.79145 q 0,0.440973 -0.440972,0.440973 h -0.440973 l -0.137804,-0.523655 h 0.385851 q 0.08268,0 0.08268,-0.08268 v -0.826824 q -0.606338,0.633898 -1.791451,1.074871 l -0.192926,-0.551216 q 1.322918,-0.468533 1.984377,-1.240235 z m -2.397788,-2.287545 v 0.468533 h 1.488282 v -0.468533 z m 0,-0.909506 v 0.468533 h 1.488282 v -0.468533 z m 2.618274,-0.440973 h 2.590713 v 5.649961 q 0,0.440972 -0.440972,0.440972 h -0.551216 l -0.110243,-0.523655 h 0.468533 q 0.08268,0 0.08268,-0.08268 v -3.224611 h -1.019749 -1.019749 z m 0.551215,0.440973 v 0.468533 h 1.488283 v -0.468533 z m 0,0.909506 v 0.468533 h 1.488283 v -0.468533 z" />
        <path
           id="path1032"
           style="font-size:7.05556px;fill:#ffffff;stroke-width:0.264583"
           d="m 45.726464,84.47412 q 0.220486,0.05512 0,0.165365 -0.05512,0.248047 -0.137804,0.468533 h 2.921443 v 0.523655 h -2.09462 q 0.964628,0.661459 2.370228,0.909506 l -0.137804,0.578776 q -0.551216,-0.110243 -0.771702,-0.220486 v 1.874133 h -0.551216 v -0.303168 h -0.964627 v 0.385851 h -0.551216 v -2.204863 h 1.433161 q -0.799263,-0.330729 -1.460722,-1.019749 h -0.440972 q -0.440973,0.633898 -1.185114,1.019749 h 1.102432 v 2.149741 h -0.551216 v -0.330729 h -0.937067 v 0.413411 h -0.551215 v -1.819011 q -0.248047,0.137804 -0.744141,0.248047 l -0.192926,-0.578777 q 1.488282,-0.220486 2.425349,-1.102431 h -2.149741 v -0.523655 h 2.48047 q 0.165365,-0.303168 0.220487,-0.661458 z m -0.551216,0.137804 H 44.624033 V 84.47412 h -1.074871 v 0.248047 h -0.551216 v -1.929254 h 2.177302 z m 0.68902,-1.819011 h 2.204862 v 1.819011 H 47.517915 V 84.47412 h -1.102432 v 0.248047 h -0.551215 z m 1.460721,5.236548 v -0.937066 h -0.964627 v 0.937066 z m -2.700956,-3.996313 v -0.799263 h -1.074871 v 0.799263 z m 2.893882,-0.799263 h -1.102432 v 0.799263 h 1.102432 z m -2.8112,4.795576 v -0.937066 h -0.937067 v 0.937066 z" />
        <path
           id="path1034"
           style="font-size:7.05556px;fill:#ffffff;stroke-width:0.264583"
           d="m 53.38836,84.859971 q 0.826824,0.716581 2.315106,1.157553 l -0.192926,0.633898 q -0.551215,-0.165365 -0.771702,-0.330729 v 2.563152 h -0.551215 v -0.275607 h -3.141929 v 0.35829 H 50.494478 V 86.403375 Q 50.21887,86.56874 49.667655,86.734104 L 49.364486,86.21045 q 1.4056,-0.413412 2.45291,-1.350479 h -2.259984 v -0.523655 h 1.488282 q -0.248047,-0.35829 -0.413412,-0.551215 l 0.468533,-0.192926 q 0.248047,0.220487 0.468534,0.578777 l -0.385851,0.165364 h 1.102431 v -0.909505 l -2.232423,0.05512 -0.165365,-0.440972 q 3.141929,-0.05512 4.712894,-0.33073 l 0.275607,0.468534 q 0.05512,0.137803 -0.192925,0.05512 l -1.846572,0.137804 v 0.964627 h 0.523654 l 0.578777,-0.964627 0.496094,0.275608 q 0.137804,0.137804 -0.08268,0.110243 l -0.440973,0.578776 h 1.653647 v 0.523655 z m 0.799263,2.315106 v -0.551216 h -1.350478 v 0.551216 z m 0,0.992188 v -0.551216 h -1.350478 v 0.551216 z m -1.901694,-0.551216 h -1.240235 v 0.551216 h 1.240235 z m 0,-0.440972 v -0.551216 h -1.240235 v 0.551216 z m 2.12218,-0.992188 Q 53.663968,85.87972 52.837145,85.108018 v 0.937067 h -0.551216 v -0.937067 q -0.661459,0.716581 -1.433161,1.074871 z" />
        <path
           id="path1036"
           style="font-size:7.05556px;fill:#ffffff;stroke-width:0.264583"
           d="m 57.494918,87.395563 q 0.468533,-0.826823 0.689019,-1.515843 h -1.76389 v -0.523655 h 6.366541 v 0.523655 h -3.968753 q -0.110243,0.33073 -0.220486,0.578777 h 3.279733 q -0.220486,1.653646 -0.606337,2.177301 -0.220487,0.275608 -0.826824,0.220487 l -0.744141,-0.08268 -0.02756,-0.606337 0.854385,0.08268 q 0.275607,0.02756 0.413411,-0.275607 0.05512,-0.137804 0.248047,-0.992189 h -2.756078 q -0.110243,0.275608 -0.303168,0.606338 z m 0.633898,-4.078996 v 0.909506 h 2.949003 v -0.909506 z m 2.949003,1.626087 v -0.192926 h -2.949003 v 0.248047 H 57.5776 v -2.204862 h 4.051435 v 2.149741 z" />
      </g>
    </g>
    <text
       style="fill:black;fill-opacity:1;line-height:1.25;stroke:none;font-family:sans-serif;font-style:normal;font-weight:normal;font-size:10.58333333px;white-space:pre;shape-inside:url(#rect944);"
       id="text942"
       xml:space="preserve" />
    <g
       transform="translate(1.1339264)"
       id="g1016">
      <g
         style="opacity:1"
         id="g1090">
        <path
           id="path1092"
           d="M 29.051611,110.74796 H 193.95437 c 2.46495,0 4.44937,1.98442 4.44937,4.44937 v 19.28061 c 0,2.46495 -1.98442,4.44937 -4.44937,4.44937 H 29.051611 c -2.464951,0 -4.449369,-1.98442 -4.449369,-4.44937 v -19.28061 c 0,-2.46495 1.984418,-4.44937 4.449369,-4.44937 z"
           style="color:#000000;font-style:normal;font-variant:normal;font-weight:normal;font-stretch:normal;font-size:medium;line-height:normal;font-family:sans-serif;font-variant-ligatures:normal;font-variant-position:normal;font-variant-caps:normal;font-variant-numeric:normal;font-variant-alternates:normal;font-variant-east-asian:normal;font-feature-settings:normal;font-variation-settings:normal;text-indent:0;text-align:start;text-decoration:none;text-decoration-line:none;text-decoration-style:solid;text-decoration-color:#000000;letter-spacing:normal;word-spacing:normal;text-transform:none;writing-mode:lr-tb;direction:ltr;text-orientation:mixed;dominant-baseline:auto;baseline-shift:baseline;text-anchor:start;white-space:normal;shape-padding:0;shape-margin:0;inline-size:0;clip-rule:nonzero;display:inline;overflow:visible;visibility:visible;isolation:auto;mix-blend-mode:normal;color-interpolation:sRGB;color-interpolation-filters:linearRGB;solid-color:#000000;solid-opacity:1;vector-effect:none;fill:#c91189;fill-opacity:0;fill-rule:nonzero;stroke:none;stroke-width:1.22315;stroke-linecap:butt;stroke-linejoin:miter;stroke-miterlimit:4;stroke-dasharray:none;stroke-dashoffset:0;stroke-opacity:1.0;color-rendering:auto;image-rendering:auto;shape-rendering:auto;text-rendering:auto;enable-background:accumulate;stop-color:#000000;stop-opacity:1;" />
        <path
           id="path1094"
           d="M 29.050781 110.13672 C 26.257596 110.13672 23.990234 112.40408 23.990234 115.19727 L 23.990234 134.47852 C 23.990234 137.2717 26.257596 139.53906 29.050781 139.53906 L 193.95508 139.53906 C 196.74826 139.53906 199.01562 137.2717 199.01562 134.47852 L 199.01562 115.19727 C 199.01562 112.40408 196.74826 110.13672 193.95508 110.13672 L 29.050781 110.13672 z M 29.050781 111.35938 L 193.95508 111.35938 C 196.09179 111.35938 197.79297 113.06055 197.79297 115.19727 L 197.79297 134.47852 C 197.79297 136.61523 196.09179 138.31641 193.95508 138.31641 L 29.050781 138.31641 C 26.914064 138.31641 25.212891 136.61523 25.212891 134.47852 L 25.212891 115.19727 C 25.212891 113.06055 26.914064 111.35938 29.050781 111.35938 z "
           style="color:#000000;font-style:normal;font-variant:normal;font-weight:normal;font-stretch:normal;font-size:medium;line-height:normal;font-family:sans-serif;font-variant-ligatures:normal;font-variant-position:normal;font-variant-caps:normal;font-variant-numeric:normal;font-variant-alternates:normal;font-variant-east-asian:normal;font-feature-settings:normal;font-variation-settings:normal;text-indent:0;text-align:start;text-decoration:none;text-decoration-line:none;text-decoration-style:solid;text-decoration-color:#000000;letter-spacing:normal;word-spacing:normal;text-transform:none;writing-mode:lr-tb;direction:ltr;text-orientation:mixed;dominant-baseline:auto;baseline-shift:baseline;text-anchor:start;white-space:normal;shape-padding:0;shape-margin:0;inline-size:0;clip-rule:nonzero;display:inline;overflow:visible;visibility:visible;isolation:auto;mix-blend-mode:normal;color-interpolation:sRGB;color-interpolation-filters:linearRGB;solid-color:#000000;solid-opacity:1;vector-effect:none;fill:#ffffff;fill-opacity:1;fill-rule:nonzero;stroke:none;stroke-width:1.22315;stroke-linecap:butt;stroke-linejoin:miter;stroke-miterlimit:4;stroke-dasharray:none;stroke-dashoffset:0;stroke-opacity:1.0;color-rendering:auto;image-rendering:auto;shape-rendering:auto;text-rendering:auto;enable-background:accumulate;stop-color:#000000;stop-opacity:1;" />
      </g>
      <g
         style="font-style:normal;font-weight:normal;font-size:7.05556px;line-height:1.25;font-family:sans-serif;fill:#ffffff;fill-opacity:1;stroke:none;stroke-width:0.264583"
         id="text940-8"
         aria-label="操作内容">
        <path
           id="path1043"
           style="font-size:7.05556px;fill:#ffffff;stroke-width:0.264583"
           d="m 30.402669,123.57894 h -0.551216 v 1.29536 l 0.496094,-0.16537 0.110244,0.46854 -0.606338,0.22048 v 2.14974 q 0,0.46854 -0.440972,0.46854 h -0.440973 l -0.110243,-0.52366 h 0.35829 q 0.08268,0 0.08268,-0.0827 v -1.84657 l -0.496094,0.1378 q -0.02756,0.19293 -0.137804,0.0827 l -0.110243,-0.6339 0.744141,-0.16536 v -1.4056 h -0.661459 v -0.52366 h 0.661459 v -1.40559 h 0.523655 q 0.220486,0.0276 0.02756,0.16536 v 1.24023 h 0.551216 z m 3.500219,-1.87413 v 1.48828 h -2.728517 v -1.48828 z m -0.468533,0.44097 h -1.791451 v 0.60634 h 1.791451 z m -1.07487,1.4056 v 1.51584 h -1.73633 v -1.51584 z m -0.468534,0.44097 h -0.799262 v 0.6339 h 0.799262 z m 2.12218,0 h -0.826823 v 0.6339 h 0.826823 z m 0.468534,-0.44097 v 1.51584 h -1.76389 v -1.51584 z m -2.232424,2.06706 v -0.38585 h 0.523655 q 0.220487,0.0276 0.02756,0.16536 v 0.22049 h 1.929255 v 0.44097 h -1.846573 q 0.909506,0.7717 1.984377,1.12999 l -0.248047,0.52366 q -1.074871,-0.46854 -1.819012,-1.24024 v 1.54341 h -0.551216 v -1.43317 q -0.71658,0.82683 -1.874133,1.21268 l -0.192925,-0.49609 q 1.43316,-0.52366 1.929254,-1.24024 h -1.736329 v -0.44097 z" />
        <path
           id="path1045"
           style="font-size:7.05556px;fill:#ffffff;stroke-width:0.264583"
           d="m 41.73015,122.86236 v 0.52365 h -1.984376 v 1.01975 h 1.736329 v 0.52366 h -1.736329 v 0.9095 h 1.846572 v 0.52366 h -1.846572 v 1.5434 h -0.551216 v -4.51997 h -0.275607 q -0.440973,0.93707 -0.937067,1.43316 l -0.523655,-0.38585 q 1.102431,-1.15755 1.378039,-2.72851 l 0.578777,0.16536 q 0.165364,0.0827 -0.02756,0.13781 -0.05512,0.2756 -0.275608,0.85438 z m -6.173615,1.92925 q 1.212675,-1.4056 1.598526,-3.03168 l 0.606337,0.19292 q 0.165364,0.11025 -0.02756,0.13781 -0.192926,0.6339 -0.551216,1.37804 l 0.165365,0.0551 q 0.110243,0.11024 -0.08268,0.1378 v 4.24436 h -0.551216 v -3.5829 q -0.303169,0.49609 -0.71658,0.93707 z" />
        <path
           id="path1047"
           style="font-size:7.05556px;fill:#ffffff;stroke-width:0.264583"
           d="m 47.380111,126.30746 q -0.881945,-0.96463 -1.598526,-1.59853 -0.35829,1.12999 -1.543404,1.9017 l -0.385851,-0.55122 q 1.543404,-0.90951 1.543404,-2.72852 h -1.708768 v 4.43729 h -0.633898 v -4.96094 h 2.370227 v -0.96463 h 0.606337 q 0.275608,0.0551 0.02756,0.22049 v 0.74414 h 2.48047 v 4.3546 q 0,0.55122 -0.523654,0.55122 H 47.35255 l -0.110243,-0.60634 h 0.551215 q 0.110243,0 0.110243,-0.11024 v -3.66559 h -1.874133 q 0,0.41341 -0.08268,0.82683 1.07487,0.71658 1.846572,1.5434 z" />
        <path
           id="path1049"
           style="font-size:7.05556px;fill:#ffffff;stroke-width:0.264583"
           d="m 54.518352,125.70112 q -1.019749,-0.52365 -1.76389,-1.4056 -0.551216,0.79926 -1.433161,1.4056 z m -1.488282,-1.81901 q 1.350478,1.37804 3.031686,1.76389 l -0.165365,0.6339 q -0.854384,-0.24805 -1.240235,-0.4961 v 2.09462 H 54.10494 v -0.16536 h -2.563152 v 0.2756 h -0.551216 v -2.06705 q -0.551216,0.38585 -1.04731,0.52365 l -0.248047,-0.57878 q 2.149741,-0.82682 2.893882,-2.39778 l 0.578777,0.19292 q 0.110243,0.11025 -0.08268,0.13781 z m -2.949004,0.38585 q 0.799263,-0.27561 1.570965,-1.12999 l 0.413411,0.38585 q 0.165365,0.1378 -0.110243,0.1378 -0.881945,0.85439 -1.570964,1.12999 z m 4.023874,2.92144 v -0.96463 h -2.563152 v 0.96463 z m -0.110243,-3.91363 q 0.633898,0.4961 1.681208,0.90951 l -0.248047,0.55121 q -0.964628,-0.35829 -1.76389,-1.04731 z m 1.157553,-0.41341 h -4.685333 v 0.79926 h -0.551215 v -1.32292 h 2.563152 v -0.68901 h 0.606337 q 0.220487,0.0276 0.02756,0.16536 v 0.52365 h 2.590714 v 1.2678 H 55.15225 Z" />
      </g>
    </g>
    <g
       transform="translate(1.1339264)"
       id="g1021">
      <g
         style="opacity:1"
         id="g1096">
        <path
           id="path1098"
           d="M 29.051611,149.7332 H 193.95437 c 2.46495,0 4.44937,1.98442 4.44937,4.44937 v 19.2806 c 0,2.46495 -1.98442,4.44937 -4.44937,4.44937 H 29.051611 c -2.464951,0 -4.449369,-1.98442 -4.449369,-4.44937 v -19.2806 c 0,-2.46495 1.984418,-4.44937 4.449369,-4.44937 z"
           style="color:#000000;font-style:normal;font-variant:normal;font-weight:normal;font-stretch:normal;font-size:medium;line-height:normal;font-family:sans-serif;font-variant-ligatures:normal;font-variant-position:normal;font-variant-caps:normal;font-variant-numeric:normal;font-variant-alternates:normal;font-variant-east-asian:normal;font-feature-settings:normal;font-variation-settings:normal;text-indent:0;text-align:start;text-decoration:none;text-decoration-line:none;text-decoration-style:solid;text-decoration-color:#000000;letter-spacing:normal;word-spacing:normal;text-transform:none;writing-mode:lr-tb;direction:ltr;text-orientation:mixed;dominant-baseline:auto;baseline-shift:baseline;text-anchor:start;white-space:normal;shape-padding:0;shape-margin:0;inline-size:0;clip-rule:nonzero;display:inline;overflow:visible;visibility:visible;isolation:auto;mix-blend-mode:normal;color-interpolation:sRGB;color-interpolation-filters:linearRGB;solid-color:#000000;solid-opacity:1;vector-effect:none;fill:#c91189;fill-opacity:0;fill-rule:nonzero;stroke:none;stroke-width:1.22315;stroke-linecap:butt;stroke-linejoin:miter;stroke-miterlimit:4;stroke-dasharray:none;stroke-dashoffset:0;stroke-opacity:1.0;color-rendering:auto;image-rendering:auto;shape-rendering:auto;text-rendering:auto;enable-background:accumulate;stop-color:#000000;stop-opacity:1;" />
        <path
           id="path1100"
           d="M 29.050781 149.12109 C 26.257596 149.12109 23.990234 151.38846 23.990234 154.18164 L 23.990234 173.46289 C 23.990234 176.25607 26.257596 178.52344 29.050781 178.52344 L 193.95508 178.52344 C 196.74826 178.52344 199.01562 176.25607 199.01562 173.46289 L 199.01562 154.18164 C 199.01562 151.38846 196.74826 149.12109 193.95508 149.12109 L 29.050781 149.12109 z M 29.050781 150.3457 L 193.95508 150.3457 C 196.09179 150.3457 197.79297 152.04492 197.79297 154.18164 L 197.79297 173.46289 C 197.79297 175.59961 196.09179 177.30078 193.95508 177.30078 L 29.050781 177.30078 C 26.914064 177.30078 25.212891 175.59961 25.212891 173.46289 L 25.212891 154.18164 C 25.212891 152.04492 26.914064 150.3457 29.050781 150.3457 z "
           style="color:#000000;font-style:normal;font-variant:normal;font-weight:normal;font-stretch:normal;font-size:medium;line-height:normal;font-family:sans-serif;font-variant-ligatures:normal;font-variant-position:normal;font-variant-caps:normal;font-variant-numeric:normal;font-variant-alternates:normal;font-variant-east-asian:normal;font-feature-settings:normal;font-variation-settings:normal;text-indent:0;text-align:start;text-decoration:none;text-decoration-line:none;text-decoration-style:solid;text-decoration-color:#000000;letter-spacing:normal;word-spacing:normal;text-transform:none;writing-mode:lr-tb;direction:ltr;text-orientation:mixed;dominant-baseline:auto;baseline-shift:baseline;text-anchor:start;white-space:normal;shape-padding:0;shape-margin:0;inline-size:0;clip-rule:nonzero;display:inline;overflow:visible;visibility:visible;isolation:auto;mix-blend-mode:normal;color-interpolation:sRGB;color-interpolation-filters:linearRGB;solid-color:#000000;solid-opacity:1;vector-effect:none;fill:#ffffff;fill-opacity:1;fill-rule:nonzero;stroke:none;stroke-width:1.22315;stroke-linecap:butt;stroke-linejoin:miter;stroke-miterlimit:4;stroke-dasharray:none;stroke-dashoffset:0;stroke-opacity:1.0;color-rendering:auto;image-rendering:auto;shape-rendering:auto;text-rendering:auto;enable-background:accumulate;stop-color:#000000;stop-opacity:1;" />
      </g>
      <g
         style="font-style:normal;font-weight:normal;font-size:7.05556px;line-height:1.25;font-family:sans-serif;fill:#ffffff;fill-opacity:1;stroke:none;stroke-width:0.264583"
         id="text940-8-4"
         aria-label="確認事項">
        <path
           id="path1053"
           style="font-size:7.05556px;fill:#ffffff;stroke-width:0.264583"
           d="m 33.489477,162.9456 h 1.295357 v 0.44098 h -1.157553 v 0.63389 h 0.937067 v 0.44098 h -0.937067 v 0.66146 h 0.937067 v 0.44097 h -0.937067 v 0.68902 h 1.378039 v 0.44097 h -2.783639 v 0.27561 h -0.468533 v -3.05925 q -0.220486,0.30317 -0.551216,0.55122 l -0.192925,-0.52366 q 1.047309,-0.93706 1.350478,-1.95681 h -0.633898 v 0.63389 H 31.257054 V 161.54 h 1.212674 q 0.110243,-0.44097 0.192926,-0.93706 l 0.551215,0.1378 q 0.08268,0.0827 -0.05512,0.16537 -0.08268,0.33073 -0.165365,0.63389 h 1.956816 v 0.96463 h -0.468534 v -0.52365 H 32.88314 q -0.165365,0.57877 -0.440973,0.96462 h 0.578777 l 0.35829,-0.82682 0.523655,0.11024 q 0.137804,0.0551 -0.05512,0.13781 z m -4.657772,-1.26779 v -0.52366 h 2.342666 v 0.52366 h -0.964627 q -0.05512,0.85438 -0.35829,1.57096 h 1.07487 v 3.27974 h -0.468533 v -0.44098 h -0.71658 v 0.71658 h -0.468533 v -2.48047 q -0.165365,0.27561 -0.358291,0.4961 l -0.35829,-0.46854 q 0.964628,-1.07487 1.129992,-2.67339 z m 3.389976,2.78364 v 0.66146 h 0.937067 v -0.66146 z m 0,-1.07487 v 0.63389 h 0.937067 v -0.63389 z m 0,2.1773 v 0.68902 h 0.937067 v -0.68902 z m -2.48047,-1.87414 v 1.95682 h 0.71658 v -1.95682 z" />
        <path
           id="path1055"
           style="font-size:7.05556px;fill:#ffffff;stroke-width:0.264583"
           d="m 38.092128,163.74487 q 1.019749,-0.27561 1.295356,-1.07487 l -0.744141,-0.30317 0.192926,-0.46854 0.661459,0.24805 0.05512,-0.66146 h -1.157553 v -0.52365 h 3.307294 l -0.05512,2.37022 q -0.02756,0.68902 -0.578776,0.68902 h -0.633898 l -0.05512,-0.52365 h 0.578776 q 0.165365,0 0.165365,-0.16537 l 0.05512,-1.84657 h -1.07487 l -0.08268,0.88195 0.661459,0.35829 -0.248047,0.49609 -0.551216,-0.30317 q -0.35829,1.01975 -1.570964,1.37804 z m 3.500219,2.75607 q -0.220486,-0.82682 -0.68902,-1.43316 l 0.496094,-0.22048 q 0.606338,0.74414 0.771702,1.4056 z m -3.693145,-1.73632 v 2.12218 h -0.468533 v -0.19293 h -0.937067 v 0.30317 h -0.468533 v -2.23242 z m 0.220486,1.76389 q 0.192926,-0.68902 0.248047,-1.57097 l 0.551216,0.0551 q 0.05512,0.0276 -0.05512,0.13781 -0.02756,0.88194 -0.248047,1.51584 z m 1.76389,-2.6734 q 0.385851,0.24805 0.771702,0.85438 l -0.523655,0.30317 q -0.192925,-0.38585 -0.661458,-0.88194 z m -3.748266,-3.00413 h 1.653647 v 0.52366 h -1.653647 z m -0.35829,0.93707 h 2.370227 v 0.52366 h -2.370227 z m 0.35829,1.01975 h 1.653647 v 0.52365 h -1.653647 z m 0,0.93707 h 1.653647 v 0.52365 h -1.653647 z m 0.35829,1.46072 v 1.04731 h 0.937067 v -1.04731 z m 3.114369,-0.52366 q 0.220486,0.0276 0.02756,0.16537 v 1.29535 q 0,0.19293 0.165365,0.19293 h 0.606337 q 0.165365,0 0.192926,-0.16536 l 0.05512,-0.44098 0.551216,0.13781 -0.110243,0.57877 q -0.08268,0.41341 -0.496094,0.41341 h -1.04731 q -0.468533,0 -0.468533,-0.49609 v -1.68121 z" />
        <path
           id="path1057"
           style="font-size:7.05556px;fill:#ffffff;stroke-width:0.264583"
           d="m 45.533539,166.47338 q 0.110243,0 0.110243,-0.11024 v -0.55122 H 43.46648 v -0.44097 h 2.177302 v -0.44097 H 42.7499 v -0.44097 h 2.893882 V 164.0756 H 43.46648 v -0.44098 h 2.177302 v -0.38585 h -0.937067 -0.909506 v -1.18511 h 1.846573 v -0.35829 h -2.728518 v -0.44097 h 2.728518 v -0.6339 h 0.523655 q 0.220486,0.0276 0.02756,0.16536 v 0.46854 h 2.645836 v 0.44097 h -2.645836 v 0.35829 h 1.791451 v 1.18511 h -1.791451 v 0.38585 h 2.122181 v 0.85439 h 0.744141 v 0.44097 h -0.744141 v 1.04731 h -0.551216 v -0.16537 h -1.570965 v 0.74415 q 0,0.44097 -0.440972,0.44097 h -0.606337 l -0.08268,-0.52366 z m -1.267796,-3.55534 h 1.378039 v -0.52365 h -1.378039 z m 1.929254,0 h 1.322918 v -0.52365 h -1.322918 z m 0,2.45291 h 1.570965 v -0.44097 h -1.570965 z m 1.570965,-0.88194 v -0.41341 h -1.570965 v 0.41341 z" />
        <path
           id="path1059"
           style="font-size:7.05556px;fill:#ffffff;stroke-width:0.264583"
           d="m 53.608847,166.28046 q -0.881945,0.55121 -1.653647,0.7717 l -0.275608,-0.55122 q 0.826824,-0.22048 1.76389,-0.7717 l 0.303169,0.41341 q 0.137804,0.16537 -0.137804,0.13781 z m 2.259984,0.68902 q -0.854384,-0.30317 -1.433161,-0.85439 l 0.385851,-0.38585 q 0.578777,0.44098 1.350478,0.71658 z m -1.598525,-4.8507 h 1.378039 v 3.5829 h -3.031686 v -3.5829 h 1.157552 l 0.08268,-0.66146 H 52.31349 v -0.52365 h 3.693145 v 0.52365 H 54.43567 Z m -2.011938,0 h -0.909505 v 2.6734 l 0.881945,-0.24805 0.110243,0.52365 -2.067059,0.66146 q -0.05512,0.27561 -0.192925,0.0276 l -0.220487,-0.60633 0.937067,-0.22049 v -2.8112 h -0.826823 v -0.52365 h 2.287544 z m 2.838761,1.01975 v -0.4961 h -1.929255 v 0.4961 z m 0,0.52365 h -1.929255 v 0.4961 h 1.929255 z m 0,1.01975 h -1.929255 v 0.4961 h 1.929255 z" />
      </g>
    </g>
    <g
       id="g1026">
      <g
         style="opacity:1"
         id="g1102">
        <path
           id="path1104"
           d="M 30.185534,188.71843 H 195.08829 c 2.46495,0 4.44937,1.98442 4.44937,4.44937 v 19.2806 c 0,2.46495 -1.98442,4.44937 -4.44937,4.44937 H 30.185534 c -2.464951,0 -4.44937,-1.98442 -4.44937,-4.44937 v -19.2806 c 0,-2.46495 1.984419,-4.44937 4.44937,-4.44937 z"
           style="color:#000000;font-style:normal;font-variant:normal;font-weight:normal;font-stretch:normal;font-size:medium;line-height:normal;font-family:sans-serif;font-variant-ligatures:normal;font-variant-position:normal;font-variant-caps:normal;font-variant-numeric:normal;font-variant-alternates:normal;font-variant-east-asian:normal;font-feature-settings:normal;font-variation-settings:normal;text-indent:0;text-align:start;text-decoration:none;text-decoration-line:none;text-decoration-style:solid;text-decoration-color:#000000;letter-spacing:normal;word-spacing:normal;text-transform:none;writing-mode:lr-tb;direction:ltr;text-orientation:mixed;dominant-baseline:auto;baseline-shift:baseline;text-anchor:start;white-space:normal;shape-padding:0;shape-margin:0;inline-size:0;clip-rule:nonzero;display:inline;overflow:visible;visibility:visible;isolation:auto;mix-blend-mode:normal;color-interpolation:sRGB;color-interpolation-filters:linearRGB;solid-color:#000000;solid-opacity:1;vector-effect:none;fill:#c91189;fill-opacity:0;fill-rule:nonzero;stroke:none;stroke-width:1.22315;stroke-linecap:butt;stroke-linejoin:miter;stroke-miterlimit:4;stroke-dasharray:none;stroke-dashoffset:0;stroke-opacity:1.0;color-rendering:auto;image-rendering:auto;shape-rendering:auto;text-rendering:auto;enable-background:accumulate;stop-color:#000000;stop-opacity:1;" />
        <path
           id="path1106"
           d="M 30.185547 188.10742 C 27.392362 188.10742 25.125 190.37478 25.125 193.16797 L 25.125 212.44922 C 25.125 215.2424 27.392362 217.50977 30.185547 217.50977 L 195.08789 217.50977 C 197.88107 217.50977 200.14844 215.2424 200.14844 212.44922 L 200.14844 193.16797 C 200.14844 190.37478 197.88107 188.10742 195.08789 188.10742 L 30.185547 188.10742 z M 30.185547 189.33008 L 195.08789 189.33008 C 197.22461 189.33008 198.92578 191.03125 198.92578 193.16797 L 198.92578 212.44922 C 198.92578 214.58593 197.22461 216.28711 195.08789 216.28711 L 30.185547 216.28711 C 28.04883 216.28711 26.347656 214.58593 26.347656 212.44922 L 26.347656 193.16797 C 26.347656 191.03125 28.04883 189.33008 30.185547 189.33008 z "
           style="color:#000000;font-style:normal;font-variant:normal;font-weight:normal;font-stretch:normal;font-size:medium;line-height:normal;font-family:sans-serif;font-variant-ligatures:normal;font-variant-position:normal;font-variant-caps:normal;font-variant-numeric:normal;font-variant-alternates:normal;font-variant-east-asian:normal;font-feature-settings:normal;font-variation-settings:normal;text-indent:0;text-align:start;text-decoration:none;text-decoration-line:none;text-decoration-style:solid;text-decoration-color:#000000;letter-spacing:normal;word-spacing:normal;text-transform:none;writing-mode:lr-tb;direction:ltr;text-orientation:mixed;dominant-baseline:auto;baseline-shift:baseline;text-anchor:start;white-space:normal;shape-padding:0;shape-margin:0;inline-size:0;clip-rule:nonzero;display:inline;overflow:visible;visibility:visible;isolation:auto;mix-blend-mode:normal;color-interpolation:sRGB;color-interpolation-filters:linearRGB;solid-color:#000000;solid-opacity:1;vector-effect:none;fill:#ffffff;fill-opacity:1;fill-rule:nonzero;stroke:none;stroke-width:1.22315;stroke-linecap:butt;stroke-linejoin:miter;stroke-miterlimit:4;stroke-dasharray:none;stroke-dashoffset:0;stroke-opacity:1.0;color-rendering:auto;image-rendering:auto;shape-rendering:auto;text-rendering:auto;enable-background:accumulate;stop-color:#000000;stop-opacity:1;" />
      </g>
      <g
         style="font-style:normal;font-weight:normal;font-size:7.05556px;line-height:1.25;font-family:sans-serif;fill:#ffffff;fill-opacity:1;stroke:none;stroke-width:0.264583"
         id="text940-8-4-1"
         aria-label="留意事項">
        <path
           id="path1063"
           style="font-size:7.05556px;fill:#ffffff;stroke-width:0.264583"
           d="m 31.036567,201.92641 -2.09462,0.93706 q -0.02756,0.19293 -0.137803,0.0827 l -0.248047,-0.60634 0.38585,-0.11024 v -2.17731 l 0.551216,0.16537 q 0.909506,-0.1378 1.736329,-0.44097 l 0.248047,0.57877 q 0.08268,0.22049 -0.220486,0.0551 -0.937066,0.19292 -1.76389,0.30316 v 1.35048 q 0.661459,-0.24805 1.240235,-0.52365 -0.110243,-0.16537 -0.496094,-0.55122 l 0.440973,-0.33073 q 0.551215,0.46854 0.964627,1.15755 l -0.468533,0.33073 z m 1.874133,-1.32292 q 0.05512,1.98438 -1.819012,2.31511 l -0.192925,-0.57878 q 1.460721,-0.19293 1.433161,-1.73633 h -0.606338 v -0.52365 h 2.673396 l -0.08268,1.6812 q -0.05512,0.90951 -0.578777,0.90951 h -0.661458 l -0.08268,-0.52366 h 0.468534 q 0.220486,0 0.248047,-0.24804 l 0.110243,-1.29536 z m 0.937067,2.42535 v 2.83876 h -0.551216 v -0.24805 h -3.472659 v 0.38585 h -0.551215 v -2.97656 z m -0.551216,1.07487 v -0.6339 H 31.83583 v 0.6339 z m 0,0.44097 H 31.83583 v 0.6339 h 1.460721 z m -2.011937,-1.07487 h -1.460722 v 0.6339 h 1.460722 z m 0,1.07487 h -1.460722 v 0.6339 h 1.460722 z" />
        <path
           id="path1065"
           style="font-size:7.05556px;fill:#ffffff;stroke-width:0.264583"
           d="m 38.588221,205.04078 q -0.110243,-0.19293 -0.468533,-0.60634 l 0.468533,-0.27561 q 0.413412,0.35829 0.523655,0.57878 z m -1.956815,-0.44098 q 0.165364,0.13781 -0.08268,0.16537 -0.192925,0.49609 -0.606337,0.99219 l -0.551216,-0.35829 q 0.385851,-0.44098 0.68902,-1.07487 z m 2.12218,-4.43728 h 2.204862 v 0.44097 h -0.964627 l -0.303169,0.6339 h 1.984377 v 0.44097 h -6.33898 v -0.44097 h 1.846572 l -0.220486,-0.6339 h -0.937067 v -0.44097 h 2.177302 v -0.4961 h 0.523655 q 0.220486,0.0276 0.02756,0.16537 z m -1.019749,1.07487 h 1.378039 l 0.303169,-0.6339 h -1.901694 z m 3.417537,4.38216 q -0.33073,-0.52365 -0.854384,-1.04731 l 0.496094,-0.33073 q 0.551215,0.46854 0.909505,1.04731 z m -3.555341,-1.35048 q 0.220486,0.0276 0.02756,0.16537 v 0.66146 q 0,0.22048 0.192925,0.22048 h 1.76389 q 0.137804,0 0.137804,-0.11024 l 0.02756,-0.41341 0.551216,0.11024 -0.02756,0.41341 q -0.02756,0.52366 -0.523655,0.52366 h -2.177302 q -0.496094,0 -0.496094,-0.46853 v -1.10244 z m 2.397788,-0.99218 h -3.086808 v 0.35829 h 3.086808 z m 0.468533,0.79926 H 36.43848 v -2.0395 h 4.023874 z m -0.468533,-1.24024 v -0.35829 h -3.086808 v 0.35829 z" />
        <path
           id="path1067"
           style="font-size:7.05556px;fill:#ffffff;stroke-width:0.264583"
           d="m 45.230369,205.45419 q 0.110244,0 0.110244,-0.11025 v -0.55121 h -2.177302 v -0.44097 h 2.177302 v -0.44098 h -2.893882 v -0.44097 h 2.893882 v -0.41341 h -2.177302 v -0.44097 h 2.177302 v -0.38585 H 44.403546 43.49404 v -1.18512 h 1.846573 v -0.35829 h -2.728518 v -0.44097 h 2.728518 v -0.6339 h 0.523654 q 0.220487,0.0276 0.02756,0.16537 v 0.46853 h 2.645835 v 0.44097 h -2.645835 v 0.35829 h 1.791451 v 1.18512 h -1.791451 v 0.38585 h 2.12218 v 0.85438 h 0.744142 v 0.44097 h -0.744142 v 1.04731 h -0.551215 v -0.16536 h -1.570965 v 0.74414 q 0,0.44097 -0.440972,0.44097 h -0.606337 l -0.08268,-0.52365 z m -1.267795,-3.55534 h 1.378039 v -0.52366 h -1.378039 z m 1.929254,0 h 1.322918 v -0.52366 h -1.322918 z m 0,2.45291 h 1.570965 v -0.44098 h -1.570965 z m 1.570965,-0.88195 v -0.41341 h -1.570965 v 0.41341 z" />
        <path
           id="path1069"
           style="font-size:7.05556px;fill:#ffffff;stroke-width:0.264583"
           d="m 53.305678,205.26126 q -0.881945,0.55122 -1.653647,0.7717 l -0.275608,-0.55121 q 0.826823,-0.22049 1.76389,-0.7717 l 0.303168,0.41341 q 0.137804,0.16536 -0.137803,0.1378 z m 2.259984,0.68902 q -0.854385,-0.30317 -1.433161,-0.85438 l 0.385851,-0.38585 q 0.578776,0.44097 1.350478,0.71658 z m -1.598526,-4.8507 h 1.378039 v 3.58291 h -3.031686 v -3.58291 h 1.157553 l 0.08268,-0.66145 h -1.543404 v -0.52366 h 3.693145 v 0.52366 h -1.570965 z m -2.011937,0 h -0.909506 v 2.6734 l 0.881945,-0.24805 0.110244,0.52366 -2.067059,0.66146 q -0.05512,0.2756 -0.192926,0.0276 l -0.220486,-0.60634 0.937067,-0.22049 v -2.8112 h -0.826824 v -0.52365 h 2.287545 z m 2.838761,1.01975 v -0.49609 h -1.929255 v 0.49609 z m 0,0.52366 h -1.929255 v 0.49609 h 1.929255 z m 0,1.01975 h -1.929255 v 0.49609 h 1.929255 z" />
      </g>
    </g>
  </g>
</svg>
